<?xml version="1.0" standalone="no"?>
<!DOCTYPE svg PUBLIC "-//W3C//DTD SVG 20010904//EN"
 "http://www.w3.org/TR/2001/REC-SVG-20010904/DTD/svg10.dtd">
<svg version="1.0" xmlns="http://www.w3.org/2000/svg"
 width="260.000000pt" height="260.000000pt" viewBox="0 0 260.000000 260.000000"
 preserveAspectRatio="xMidYMid meet">
<metadata>
Created by potrace 1.11, written by Peter Selinger 2001-2013
</metadata>
<g transform="translate(0.000000,260.000000) scale(0.100000,-0.100000)"
fill="#000000" stroke="none">
<path d="M1070 2124 c-459 -62 -822 -282 -980 -593 -100 -196 -102 -429 -6
-621 125 -249 370 -438 705 -544 44 -14 93 -28 108 -31 183 -34 222 -38 378
-39 94 -1 197 3 230 7 541 73 940 352 1051 737 25 87 25 261 1 345 -44 150
-112 262 -231 378 -193 189 -432 298 -796 362 -77 13 -357 13 -460 -1z"/>
</g>
</svg>
